<svg xmlns="http://www.w3.org/2000/svg" version="1.1" xmlns:xlink="http://www.w3.org/1999/xlink" xmlns:svgjs="http://svgjs.dev/svgjs" width="2000" height="1252" viewBox="0 0 2000 1252"><g transform="matrix(1,0,0,1,-1.2121212121212466,-2.01935483870966)"><svg viewBox="0 0 396 248" data-background-color="#ffffff" preserveAspectRatio="xMidYMid meet" height="1252" width="2000" xmlns="http://www.w3.org/2000/svg" xmlns:xlink="http://www.w3.org/1999/xlink"><g id="tight-bounds" transform="matrix(1,0,0,1,0.2400000000000091,0.4000000000000057)"><svg viewBox="0 0 395.52 247.2" height="247.2" width="395.52"><g><svg></svg></g><g><svg viewBox="0 0 395.52 247.2" height="247.2" width="395.52"><mask id="91b3e8b1-ff8e-432a-82dc-c8b085a58ba2"><rect width="640" height="400" fill="white"></rect><g transform="matrix(1,0,0,1,39.55199999999999,75.73755568934376)"><svg viewBox="0 0 316.416 95.72488862131245" height="95.72488862131245" width="316.416"><g><svg viewBox="0 0 316.416 95.72488862131245" height="95.72488862131245" width="316.416"><g><svg viewBox="0 0 316.416 95.72488862131245" height="95.72488862131245" width="316.416"><g><svg viewBox="0 0 316.416 95.72488862131245" height="95.72488862131245" width="316.416"><g id="SvgjsG7043"><svg viewBox="0 0 316.416 95.72488862131245" height="95.72488862131245" width="316.416" id="SvgjsSvg7042"><g><svg viewBox="0 0 316.416 95.72488862131245" height="95.72488862131245" width="316.416"><g transform="matrix(1,0,0,1,0,0)"><svg width="316.416" viewBox="-2 -44.7 165.59 51.25" height="95.72488862131245" data-palette-color="#233565"><g class="wordmark-text-0" data-fill-palette-color="primary" id="SvgjsG7041"><path d="M22.1-34.5L21.55-29.15 10.9-29.15 10.6-19.95 20.15-19.95 19.6-14.65 10.45-14.65 10.4-13 11 0 4 0 4.6-12.15 4-34.5 22.1-34.5Z" fill="black" stroke-width="11" stroke="black" stroke-linejoin="round"></path><path d="M55.5-35L55.5-35Q61.4-35 65.22-30.5 69.05-26 69.05-19.05L69.05-19.05Q69.05-10.25 64.5-4.85 59.95 0.55 52.55 0.55L52.55 0.55Q46.8 0.55 42.9-4.08 39-8.7 39-15.5L39-15.5Q39-24 43.65-29.5 48.3-35 55.5-35ZM62.25-16.25L62.25-16.25Q62.25-28.9 53.94-28.9L53.94-28.9Q50.15-28.9 47.97-26.08 45.8-23.25 45.8-17.63 45.8-12 48.12-8.38 50.45-4.75 54.27-4.75 58.1-4.75 60.17-7.83 62.25-10.9 62.25-16.25ZM88.54-35L88.54-35Q94.44-35 98.27-30.5 102.09-26 102.09-19.05L102.09-19.05Q102.09-10.25 97.54-4.85 92.99 0.55 85.59 0.55L85.59 0.55Q79.84 0.55 75.94-4.08 72.04-8.7 72.04-15.5L72.04-15.5Q72.04-24 76.69-29.5 81.34-35 88.54-35ZM95.29-16.25L95.29-16.25Q95.29-28.9 86.99-28.9L86.99-28.9Q83.19-28.9 81.02-26.08 78.84-23.25 78.84-17.63 78.84-12 81.17-8.38 83.49-4.75 87.32-4.75 91.14-4.75 93.22-7.83 95.29-10.9 95.29-16.25Z" fill="black" stroke-width="11" stroke="black" stroke-linejoin="round"></path><path d="M125.89-4.9L125.89-4.9Q121.99 0 119.14 0L119.14 0Q115.59 0 113.31-2.9 111.04-5.8 111.04-10.35L111.04-10.35Q111.04-16.6 114.51-20.9 117.99-25.2 123.04-25.2L123.04-25.2 125.84-24.8 125.84-25.75 125.24-37.45 132.09-38.7 131.44-13 131.44-8.6Q131.44-5.6 132.94-1.7L132.94-1.7 127.54 0.55Q126.09-2.45 125.89-4.9ZM116.64-12.95Q116.64-9.75 117.81-7.95 118.99-6.15 121.21-6.15 123.44-6.15 125.84-7.95L125.84-7.95 125.84-18.75Q122.84-19.35 121.39-19.35L121.39-19.35Q119.14-19.35 117.89-17.75 116.64-16.15 116.64-12.95ZM136.29-10.45Q136.29-16.85 139.74-21.3 143.18-25.75 147.81-25.75 152.43-25.75 155.01-22.75 157.59-19.75 157.59-14.8L157.59-14.8Q157.59-8.2 154.26-3.83 150.93 0.55 145.89 0.55L145.89 0.55Q141.74 0.55 139.01-2.58 136.29-5.7 136.29-10.45L136.29-10.45ZM151.99-12.2L151.99-12.2Q151.99-19.45 147.04-19.45L147.04-19.45Q141.89-19.45 141.89-12.65L141.89-12.65Q141.89-9.1 143.34-7.1 144.79-5.1 147.16-5.1 149.54-5.1 150.76-6.93 151.99-8.75 151.99-12.2Z" fill="black" stroke-width="11" stroke="black" stroke-linejoin="round"></path></g></svg></g></svg></g></svg></g></svg></g></svg></g></svg></g></svg></g></mask><g transform="matrix(1,0,0,1,39.55199999999999,75.73755568934376)"><svg viewBox="0 0 316.416 95.72488862131245" height="95.72488862131245" width="316.416"><g><svg viewBox="0 0 316.416 95.72488862131245" height="95.72488862131245" width="316.416"><g><svg viewBox="0 0 316.416 95.72488862131245" height="95.72488862131245" width="316.416"><g><svg viewBox="0 0 316.416 95.72488862131245" height="95.72488862131245" width="316.416"><g id="textblocktransform"><svg viewBox="0 0 316.416 95.72488862131245" height="95.72488862131245" width="316.416" id="textblock"><g><svg viewBox="0 0 316.416 95.72488862131245" height="95.72488862131245" width="316.416"><g transform="matrix(1,0,0,1,0,0)"><svg width="316.416" viewBox="-2 -44.7 165.59 51.25" height="95.72488862131245" data-palette-color="#233565"><g class="wordmark-text-0" data-fill-palette-color="primary" id="text-0"><path d="M22.1-34.5L21.55-29.15 10.9-29.15 10.6-19.95 20.15-19.95 19.6-14.65 10.45-14.65 10.4-13 11 0 4 0 4.6-12.15 4-34.5 22.1-34.5Z" fill="#233565" data-fill-palette-color="primary"></path><path d="M55.5-35L55.5-35Q61.4-35 65.22-30.5 69.05-26 69.05-19.05L69.05-19.05Q69.05-10.25 64.5-4.85 59.95 0.55 52.55 0.55L52.55 0.55Q46.8 0.55 42.9-4.08 39-8.7 39-15.5L39-15.5Q39-24 43.65-29.5 48.3-35 55.5-35ZM62.25-16.25L62.25-16.25Q62.25-28.9 53.94-28.9L53.94-28.9Q50.15-28.9 47.97-26.08 45.8-23.25 45.8-17.63 45.8-12 48.12-8.38 50.45-4.75 54.27-4.75 58.1-4.75 60.17-7.83 62.25-10.9 62.25-16.25ZM88.54-35L88.54-35Q94.44-35 98.27-30.5 102.09-26 102.09-19.05L102.09-19.05Q102.09-10.25 97.54-4.85 92.99 0.55 85.59 0.55L85.59 0.55Q79.84 0.55 75.94-4.08 72.04-8.7 72.04-15.5L72.04-15.5Q72.04-24 76.69-29.5 81.34-35 88.54-35ZM95.29-16.25L95.29-16.25Q95.29-28.9 86.99-28.9L86.99-28.9Q83.19-28.9 81.02-26.08 78.84-23.25 78.84-17.63 78.84-12 81.17-8.38 83.49-4.75 87.32-4.75 91.14-4.75 93.22-7.83 95.29-10.9 95.29-16.25Z" fill="#f97316" data-fill-palette-color="accent"></path><path d="M125.89-4.9L125.89-4.9Q121.99 0 119.14 0L119.14 0Q115.59 0 113.31-2.9 111.04-5.8 111.04-10.35L111.04-10.35Q111.04-16.6 114.51-20.9 117.99-25.2 123.04-25.2L123.04-25.2 125.84-24.8 125.84-25.75 125.24-37.45 132.09-38.7 131.44-13 131.44-8.6Q131.44-5.6 132.94-1.7L132.94-1.7 127.54 0.55Q126.09-2.45 125.89-4.9ZM116.64-12.95Q116.64-9.75 117.81-7.95 118.99-6.15 121.21-6.15 123.44-6.15 125.84-7.95L125.84-7.95 125.84-18.75Q122.84-19.35 121.39-19.35L121.39-19.35Q119.14-19.35 117.89-17.75 116.64-16.15 116.64-12.95ZM136.29-10.45Q136.29-16.85 139.74-21.3 143.18-25.75 147.81-25.75 152.43-25.75 155.01-22.75 157.59-19.75 157.59-14.8L157.59-14.8Q157.59-8.2 154.26-3.83 150.93 0.55 145.89 0.55L145.89 0.55Q141.74 0.55 139.01-2.58 136.29-5.7 136.29-10.45L136.29-10.45ZM151.99-12.2L151.99-12.2Q151.99-19.45 147.04-19.45L147.04-19.45Q141.89-19.45 141.89-12.65L141.89-12.65Q141.89-9.1 143.34-7.1 144.79-5.1 147.16-5.1 149.54-5.1 150.76-6.93 151.99-8.75 151.99-12.2Z" fill="#233565" data-fill-palette-color="primary"></path></g></svg></g></svg></g></svg></g></svg></g></svg></g></svg></g></svg></g><g mask="url(#91b3e8b1-ff8e-432a-82dc-c8b085a58ba2)"><g transform="matrix(3.1204265770752997, 0, 0, 3.1204265770752997, 74.82299392967587, 1)"><svg xmlns="http://www.w3.org/2000/svg" xmlns:xlink="http://www.w3.org/1999/xlink" version="1.1" x="0" y="0" viewBox="10.603 10.71 78.795 78.57900000000001" enable-background="new 0 0 100 100" xml:space="preserve" height="78.57900000000001" width="78.795" class="icon-none" data-fill-palette-color="accent" id="none"><path d="M79.236 48.382L79.894 48.322C79.106 39.623 71.023 32.886 61.43 32.886L61.168 32.887C56.553 32.958 52.241 34.54 48.895 37.333A20 20 0 0 0 40.74 35.698C36.807 35.751 33.167 36.891 30.179 38.828L23.373 10.71 20.457 11.416 27.588 40.876A16.8 16.8 0 0 0 24.349 45.07L13.462 21.673 10.742 22.939 22.581 48.382H10.603V49.882C10.603 71.611 28.274 89.289 49.996 89.289 71.723 89.289 89.398 71.611 89.398 49.882V48.382zM61.212 35.888L61.436 35.887C69.403 35.887 76.114 41.325 76.876 48.382H58.938C57.846 44.488 55.26 41.158 51.787 38.888 54.453 37.003 57.726 35.942 61.212 35.888M40.779 38.7C47.774 38.605 53.792 42.682 55.799 48.383H26.172C28.171 42.781 34.059 38.791 40.779 38.7M49.995 86.29C30.43 86.29 14.422 70.766 13.633 51.383H56.469L56.471 51.395 56.601 51.383H86.368C85.578 70.765 69.564 86.29 49.995 86.29" fill="#f97316" data-fill-palette-color="accent"></path></svg></g></g></svg></g><defs></defs></svg><rect width="395.52" height="247.2" fill="none" stroke="none" visibility="hidden"></rect></g></svg></g></svg>